<svg xmlns="http://www.w3.org/2000/svg" viewBox="0 0 94.51 38"><g id="Layer_2" data-name="Layer 2"><g id="Layer_1-2" data-name="Layer 1"><path class="cls-1" d="M3.31,38,3,36.71H1.19L.83,38H0l1.71-5.07h.82L4.19,38Zm-1.19-4L1.45,36H2.79l-.67-2.12Z"/><polygon class="cls-1" points="7.55 37.95 7.55 35.73 5.48 35.73 5.48 37.95 4.71 37.95 4.71 32.88 5.48 32.88 5.48 35.05 7.55 35.05 7.55 32.88 8.32 32.88 8.32 37.95 7.55 37.95 7.55 37.95"/><polygon class="cls-1" points="9.31 37.95 9.31 32.88 12.41 32.88 12.41 33.5 10.08 33.5 10.08 35.05 11.79 35.05 11.79 35.73 10.08 35.73 10.08 37.28 12.41 37.28 12.41 37.95 9.31 37.95 9.31 37.95"/><path class="cls-1" d="M16,38l-.36-1.24H13.91L13.49,38h-.82l1.75-5.07h.83L16.85,38Zm-1.19-4L14.11,36h1.35l-.62-2.12Z"/><path class="cls-1" d="M17.42,38V32.88H19.8c.1,0,.21,0,.31.11s.21,0,.26.1.16.15.26.21a.85.85,0,0,1,.21.31,1,1,0,0,1,.1.41c0,.15,0,.36.1.62v1.55c-.05.21-.05.41-.1.57a1.2,1.2,0,0,1-.1.46c-.06.11-.16.21-.21.31s-.16.11-.26.16a1.19,1.19,0,0,1-.26.15c-.1,0-.21.06-.31.06a.9.9,0,0,1-.36.05Zm2-.67a.67.67,0,0,0,.36-.06.52.52,0,0,0,.26-.2c0-.05.05-.11.05-.16s.05-.15.1-.31V34.23c-.05-.11-.05-.21-.1-.26s-.05-.16-.05-.21a1.19,1.19,0,0,0-.26-.15.67.67,0,0,0-.36-.11H18.2v3.78Z"/><path class="cls-1" d="M27.14,37.53a2.26,2.26,0,0,1-.26.16l-.31.15a.83.83,0,0,1-.41.11c-.15,0-.36,0-.52,0s-.41,0-.57,0a.86.86,0,0,1-.41-.11l-.31-.15a.72.72,0,0,1-.21-.16,1,1,0,0,1-.2-.31,4,4,0,0,1-.16-.46,2,2,0,0,1-.05-.57,4.09,4.09,0,0,1-.05-.78,3.5,3.5,0,0,1,.05-.77,2.17,2.17,0,0,1,.05-.62,2.94,2.94,0,0,1,.16-.41c0-.16.1-.26.2-.31a.43.43,0,0,1,.21-.21l.31-.16c.1,0,.26,0,.41,0a2.05,2.05,0,0,1,.57-.05,1.8,1.8,0,0,1,.52.05c.16,0,.31,0,.41,0l.31.16a.71.71,0,0,1,.26.21,2.18,2.18,0,0,1,.21.31,4.13,4.13,0,0,1,.1.41c.05.15.05.36.11.62v1.55c-.06.21-.06.41-.11.57s-.05.31-.1.46a1.31,1.31,0,0,0-.21.31ZM26.52,37c.05,0,.11-.11.11-.16a.39.39,0,0,0,.05-.26,1.16,1.16,0,0,0,.05-.46v-1.4a1,1,0,0,0-.05-.41.56.56,0,0,0-.05-.31s-.06-.11-.11-.16a.55.55,0,0,0-.31-.26,2,2,0,0,0-.57,0,2.21,2.21,0,0,0-.62,0,.59.59,0,0,0-.31.26.28.28,0,0,0-.1.16.56.56,0,0,0-.05.31,1,1,0,0,0,0,.41v1.4a1.16,1.16,0,0,0,0,.46.39.39,0,0,0,.05.26s.05.16.1.16.16.2.31.25a1.72,1.72,0,0,0,.62.11,1.61,1.61,0,0,0,.57-.11c.16,0,.26-.1.31-.25Z"/><polygon class="cls-1" points="28.49 37.95 28.49 32.88 31.54 32.88 31.54 33.5 29.26 33.5 29.26 35.05 30.97 35.05 30.97 35.73 29.26 35.73 29.26 37.95 28.49 37.95 28.49 37.95"/><polygon class="cls-1" points="37.53 37.95 36.66 34.95 35.78 37.95 34.9 37.95 33.6 32.88 34.43 32.88 35.36 36.86 36.29 33.81 37.07 33.81 37.95 36.81 38.93 32.88 39.76 32.88 38.36 37.95 37.53 37.95 37.53 37.95"/><polygon class="cls-1" points="43.17 37.95 43.17 35.73 41.1 35.73 41.1 37.95 40.33 37.95 40.33 32.88 41.1 32.88 41.1 35.05 43.17 35.05 43.17 32.88 43.95 32.88 43.95 37.95 43.17 37.95 43.17 37.95"/><path class="cls-1" d="M47.82,38l-.36-1.24H45.7L45.29,38h-.83l1.76-5.07h.83L48.65,38Zm-1.19-4L45.91,36h1.34l-.62-2.12Z"/><polygon class="cls-1" points="49.68 37.95 49.68 33.5 48.39 33.5 48.39 32.88 51.75 32.88 51.75 33.5 50.46 33.5 50.46 37.95 49.68 37.95 49.68 37.95"/><path class="cls-1" d="M52.17,34.17h.2a.12.12,0,0,0,.11-.1c.05,0,.05,0,.05-.1v-.36h-.31v-.73h.72v.78c0,.15,0,.26,0,.36a.41.41,0,0,1-.1.26,1,1,0,0,1-.21.15,2,2,0,0,1-.31,0Z"/><path class="cls-1" d="M56.2,34.12c0-.1,0-.15-.05-.2a.27.27,0,0,0-.11-.21,1.33,1.33,0,0,0-.26-.16,1.61,1.61,0,0,0-.51,0,1.67,1.67,0,0,0-.78.16.64.64,0,0,0-.26.51.43.43,0,0,0,.11.31.46.46,0,0,0,.26.21,2.86,2.86,0,0,0,.36.1,1.1,1.1,0,0,1,.41.06.9.9,0,0,1,.36,0c.16,0,.26.05.42.05a2.18,2.18,0,0,0,.36.15c.1.11.21.16.26.26a1.09,1.09,0,0,1,.2.42,1.32,1.32,0,0,1,.11.51,1.6,1.6,0,0,1-.16.73.91.91,0,0,1-.36.51,1.14,1.14,0,0,1-.57.31,1.63,1.63,0,0,1-.77.16,3.22,3.22,0,0,1-.73-.1,2.13,2.13,0,0,1-.46-.31.69.69,0,0,1-.31-.37.72.72,0,0,1-.21-.36c0-.1,0-.2,0-.31V36.4h.77a.59.59,0,0,0,.06.31l.15.31a1.25,1.25,0,0,0,.78.31c.15,0,.31,0,.46,0a1.41,1.41,0,0,0,.31-.21.49.49,0,0,0,.21-.31.79.79,0,0,0,0-.36,1,1,0,0,0,0-.42,1.07,1.07,0,0,0-.26-.2,3.53,3.53,0,0,0-.41-.16c-.16,0-.37,0-.57,0s-.36,0-.57-.1a2.42,2.42,0,0,1-.47-.21.76.76,0,0,1-.31-.36,1.14,1.14,0,0,1-.15-.62v-.21c0-.1,0-.21.1-.31l.16-.31.31-.31a2.35,2.35,0,0,1,.46-.21,1.73,1.73,0,0,1,.73-.1,2.44,2.44,0,0,1,.62.05.7.7,0,0,1,.36.11.41.41,0,0,1,.26.1.38.38,0,0,1,.2.21.72.72,0,0,1,.21.36,1.52,1.52,0,0,1,.1.46Z"/><path class="cls-1" d="M59.66,38V32.88h1.92a1.36,1.36,0,0,1,.67.11,2.07,2.07,0,0,1,.46.31,1.45,1.45,0,0,1,.26.51,1.48,1.48,0,0,1,.1.67,1.5,1.5,0,0,1-.1.68,1,1,0,0,1-.31.51,3,3,0,0,1-.46.37,2.76,2.76,0,0,1-.62.1H60.44V38Zm1.71-2.48a.57.57,0,0,0,.31-.06l.31-.15A1,1,0,0,0,62.2,35a1.06,1.06,0,0,0,.1-.47.92.92,0,0,0,0-.36l-.16-.31a.79.79,0,0,0-.26-.2.64.64,0,0,0-.36-.11h-1v2Z"/><path class="cls-1" d="M67.21,37.53a2.26,2.26,0,0,1-.26.16l-.31.15a.86.86,0,0,1-.41.11c-.16,0-.36,0-.52,0s-.41,0-.57,0a1,1,0,0,1-.41-.11l-.31-.15a.61.61,0,0,1-.21-.16,1,1,0,0,1-.2-.31,2.7,2.7,0,0,1-.16-.46,2,2,0,0,1-.05-.57,4.09,4.09,0,0,1,0-.78,3.5,3.5,0,0,1,0-.77,2.17,2.17,0,0,1,.05-.62,2.06,2.06,0,0,1,.16-.41c0-.16.1-.26.2-.31a.39.39,0,0,1,.21-.21l.31-.16c.15,0,.26,0,.41,0a2,2,0,0,1,.57-.05,1.84,1.84,0,0,1,.52.05c.15,0,.31,0,.41,0l.31.16a.71.71,0,0,1,.26.21,3.65,3.65,0,0,1,.21.31,4.13,4.13,0,0,1,.1.41c0,.15,0,.36.1.62v1.55c-.05.21-.05.41-.1.57s0,.31-.1.46a1.06,1.06,0,0,0-.21.31ZM66.59,37s.1-.11.1-.16.06-.15.11-.26V34.28a1.21,1.21,0,0,0-.11-.31.28.28,0,0,0-.1-.16.55.55,0,0,0-.31-.26,2,2,0,0,0-.57,0,2.21,2.21,0,0,0-.62,0,.59.59,0,0,0-.31.26.28.28,0,0,0-.1.16.56.56,0,0,0-.05.31.87.87,0,0,0-.06.41v1.4a1,1,0,0,0,.06.46.39.39,0,0,0,.05.26s0,.16.1.16.16.2.31.25a1.72,1.72,0,0,0,.62.11,1.65,1.65,0,0,0,.57-.11c.16,0,.26-.1.31-.25Z"/><path class="cls-1" d="M71.09,34.12v-.2c0-.11,0-.16-.16-.21a1.33,1.33,0,0,0-.26-.16,1.28,1.28,0,0,0-.51,0,1.34,1.34,0,0,0-.73.16.52.52,0,0,0-.25.51c0,.16,0,.26.1.31a.36.36,0,0,0,.21.21c.1.05.25.05.36.1a1.22,1.22,0,0,1,.46.06,1,1,0,0,1,.36,0c.11,0,.26.05.37.05a3.28,3.28,0,0,1,.36.15c.1.11.21.16.31.26s.15.26.21.42a1.61,1.61,0,0,1,0,.51,2.73,2.73,0,0,1-.11.73,1.23,1.23,0,0,1-.36.51,1.14,1.14,0,0,1-.57.31,1.93,1.93,0,0,1-.77.16,2.85,2.85,0,0,1-.73-.1c-.2-.11-.36-.21-.51-.31a2,2,0,0,1-.31-.37,1.54,1.54,0,0,1-.16-.36.65.65,0,0,1,0-.31.22.22,0,0,0-.05-.15h.77c0,.1.06.2.06.31a1.24,1.24,0,0,0,.2.31.48.48,0,0,0,.31.2,1,1,0,0,0,.47.11c.15,0,.31,0,.41,0s.26-.11.31-.21a.49.49,0,0,0,.21-.31.76.76,0,0,0,.1-.36.86.86,0,0,0-.1-.42.52.52,0,0,0-.26-.2,1.74,1.74,0,0,0-.41-.16c-.16,0-.37,0-.57,0s-.36,0-.52-.1a1.14,1.14,0,0,1-.47-.21,1.37,1.37,0,0,1-.36-.36,1.16,1.16,0,0,1-.1-.62v-.21c0-.1,0-.21,0-.31a1,1,0,0,1,.21-.31.82.82,0,0,1,.31-.31,1.1,1.1,0,0,1,.46-.21,1.62,1.62,0,0,1,.73-.1,2.05,2.05,0,0,1,.57.05.86.86,0,0,1,.41.11.41.41,0,0,1,.26.1.63.63,0,0,1,.15.21.8.8,0,0,1,.26.36,1.44,1.44,0,0,1,0,.46Z"/><path class="cls-1" d="M75.33,34.12v-.2c0-.11,0-.16-.16-.21a1.33,1.33,0,0,0-.26-.16,1.45,1.45,0,0,0-.51,0,1.34,1.34,0,0,0-.73.16.53.53,0,0,0-.26.51c0,.16,0,.26.06.31a.78.78,0,0,0,.25.21c.11.05.26.05.37.1a1.22,1.22,0,0,1,.46.06,1,1,0,0,1,.36,0c.11,0,.26.05.37.05a3.28,3.28,0,0,1,.36.15,3.88,3.88,0,0,0,.31.26,3.34,3.34,0,0,1,.2.42,1.35,1.35,0,0,1,.06.51,3.2,3.2,0,0,1-.11.73,1.23,1.23,0,0,1-.36.51,1.11,1.11,0,0,1-.62.31,1.55,1.55,0,0,1-.72.16,2.55,2.55,0,0,1-.73-.1c-.2-.11-.36-.21-.51-.31a.69.69,0,0,1-.31-.37,1.54,1.54,0,0,1-.16-.36.65.65,0,0,1,0-.31.39.39,0,0,1,0-.15h.77c0,.1,0,.2,0,.31a1.7,1.7,0,0,0,.21.31.52.52,0,0,0,.26.2,1.37,1.37,0,0,0,.52.11c.15,0,.31,0,.41,0a1.41,1.41,0,0,0,.31-.21.49.49,0,0,0,.21-.31.76.76,0,0,0,.1-.36.86.86,0,0,0-.1-.42.52.52,0,0,0-.26-.2,3.53,3.53,0,0,0-.41-.16c-.16,0-.37,0-.57,0s-.37,0-.52-.1a1.89,1.89,0,0,1-.52-.21,3,3,0,0,1-.31-.36,1.16,1.16,0,0,1-.1-.62v-.21c0-.1,0-.21,0-.31a1,1,0,0,1,.21-.31,1.19,1.19,0,0,1,.26-.31,1.82,1.82,0,0,1,.51-.21,1.5,1.5,0,0,1,.68-.1,2.25,2.25,0,0,1,.62.05.86.86,0,0,1,.41.11c.1,0,.15,0,.26.1a.63.63,0,0,1,.15.21.8.8,0,0,1,.26.36,1.44,1.44,0,0,1,0,.46Z"/><polygon class="cls-1" points="77.03 37.95 77.03 32.88 77.81 32.88 77.81 37.95 77.03 37.95 77.03 37.95"/><path class="cls-1" d="M78.84,38V32.88h2a1.85,1.85,0,0,1,.57,0c.15.06.31.16.41.21a1.19,1.19,0,0,1,.26.31l.16.31a.58.58,0,0,1,0,.26.39.39,0,0,1,0,.21,2.17,2.17,0,0,0,0,.25.61.61,0,0,1-.11.31l-.15.31a1,1,0,0,1-.31.21,2.33,2.33,0,0,1,.52.47,1.44,1.44,0,0,1,.15.67v.21a.8.8,0,0,1-.1.31.88.88,0,0,1-.11.36,1.81,1.81,0,0,1-.31.31,1,1,0,0,1-.41.2,1.72,1.72,0,0,1-.62.11Zm1.86-2.9a.83.83,0,0,0,.37,0,.47.47,0,0,0,.25-.21.27.27,0,0,0,.16-.25.34.34,0,0,0,0-.21c0-.31,0-.52-.21-.62a1.49,1.49,0,0,0-.72-.21h-1v1.55Zm.16,2.23c.1,0,.26,0,.31-.06a1.17,1.17,0,0,0,.26-.2c0-.11.1-.16.15-.26V36.5c0-.15,0-.26,0-.31a.41.41,0,0,0-.1-.26,1.19,1.19,0,0,0-.26-.15,2.43,2.43,0,0,0-.26-.05H79.62v1.55Z"/><polygon class="cls-1" points="83.24 37.95 83.24 32.88 84.01 32.88 84.01 37.28 85.98 37.28 85.98 37.95 83.24 37.95 83.24 37.95"/><polygon class="cls-1" points="86.6 37.95 86.6 32.88 89.65 32.88 89.65 33.5 87.37 33.5 87.37 35.05 89.08 35.05 89.08 35.73 87.37 35.73 87.37 37.28 89.65 37.28 89.65 37.95 86.6 37.95 86.6 37.95"/><polygon class="cls-1" points="90.99 35.31 90.99 33.19 90.37 33.19 90.37 32.88 92.03 32.88 92.03 33.19 91.41 33.19 91.41 35.31 90.99 35.31 90.99 35.31"/><polygon class="cls-1" points="94.15 35.31 94.15 33.5 93.53 34.74 93.22 34.74 92.65 33.55 92.65 35.31 92.28 35.31 92.28 32.88 92.7 32.88 93.42 34.28 94.09 32.88 94.51 32.88 94.51 35.31 94.15 35.31 94.15 35.31"/><path class="cls-1" d="M85.2,25.39c-4.75,0-4.7-3.68-4.7-3.68h2.17s-.21,1.81,2.17,2c.62,0,2.53-.26,2.53-1.55,0-1.55-2-1.5-3.15-1.86s-3.57-.83-3.57-3c0-1.91,1.55-3.52,4.55-3.52,4,0,4,3.1,4,3.31H87.12c-.11-.46-.26-1.55-2-1.6-.88,0-2.22.31-2.22,1.34,0,1.3,1.5,1.5,3.05,1.71,2.37.46,3.72,1.19,3.67,3.36,0,2-1.76,3.52-4.4,3.52m2.07-14.27V10A4.18,4.18,0,0,1,84,11.53C77.14,11.37,77.09.16,84.27.05A4.77,4.77,0,0,1,88,1.91a3.79,3.79,0,0,1,.78,1.81H86.86a3.09,3.09,0,0,0-2.64-1.86c-4.19-.05-4.45,7.81,0,7.91a3.47,3.47,0,0,0,3-2V7.19H84.43V5.43H89v5.69Zm-15.1,14V13.91h8v2H74.35v2.33h5.11v2H74.35v2.94h6v1.91ZM73,9.67c4.14.05,4.14-7.71,0-7.76s-4.14,7.76,0,7.76m0,1.86C65.81,11.53,66.12,0,73.1,0,79.88.05,80,11.53,73,11.53m-6.1,13.8c-6.15.16-7.19-11.68,0-11.58a4.69,4.69,0,0,1,4.86,3.83H69.54c-.31-.67-1.24-2-2.38-2.12-3.93-.26-3.93,8.12,0,8.12,1.91,0,2.38-1.92,2.48-2.12h2.17c0,.05-.31,3.82-4.91,3.87m-6.26-14V.16h2.23v9.3h5v1.91Zm-2.06,2.54H61V25H58.58ZM56.25,6.67l-1.4-4.19L53.46,6.67v.62H56.3a2,2,0,0,0,0-.62m1.6,4.7L57,8.89H52.89l-.72,2.48H49.89L53.67.16h2.27l4.24,11.21ZM54.34,25H52.17L48.5,14.48v-.57h2.22l2.53,8.17,2.48-8.17H57.9v.62Zm-7-13.65L42.39,3.83v7.54H40.12V.16h2.33l4.7,7.44V.16h2.28V11.37Zm-7.76,13.7V13.91h8.22v1.86h-6v2.38H47.1v2H41.83v3H48v1.91ZM35.78,6.62l-1.4-4.09L33.09,6.62,33,7.29h2.74a2.91,2.91,0,0,0,0-.67m-2.38,9.2H31.64v7.5h1.91c2.49,0,2.85-2.12,2.85-3.73,0-1.29-.62-3.77-3-3.77m4-4.45-.83-2.48H32.42l-.73,2.48H29.42L33.19.16h2.28l4.24,11.21Zm-3.77,13.7H29.26V13.91h4.35c3.2,0,5.11,2.53,5.11,5.79s-1.7,5.37-5.11,5.37M5.38,4.19v18L21,13ZM.26.26H25.18V25.33H.26Z"/></g></g></svg>