<svg xmlns="http://www.w3.org/2000/svg" version="1.1" viewBox="0 0 1323 210">
    <path stroke="none" d=" M48.679054,42.256565   C57.597149,42.052685 66.077843,42.052685 74.708618,42.052685   C72.399559,50.381992 68.947418,58.242382 68.896896,67.087502   C68.827568,79.224876 73.180573,89.444794 80.356972,98.874657   C85.402481,105.504517 91.863319,110.743233 97.373978,116.893303   C102.680466,122.815506 107.527245,128.868484 108.155655,137.519623   C108.914108,147.960831 103.974464,154.708450 95.837296,160.063324   C86.664162,166.099930 78.024918,172.672440 72.142471,182.314713   C68.182755,188.805359 66.317375,195.922684 65.166031,203.228683   C64.770287,205.739899 64.011543,206.078537 61.872688,206.061203   C51.892105,205.980255 41.910450,206.032059 31.465664,206.109009   C22.200010,206.866974 13.380661,206.217255 4.577323,206.528671   C1.573318,206.634933 1.476314,204.995621 1.492599,202.776062   C1.551215,194.787292 1.529634,186.797791 1.512657,178.808609   C1.479409,163.163696 1.602134,147.518570 1.225108,131.436920   C1.000000,101.979103 1.000000,72.958214 1.000000,43.468658   C6.587234,41.900188 12.229507,42.641525 17.843245,42.551407   C27.974174,42.388767 38.108860,42.587955 48.679054,42.256565  z"/>
    <path stroke="none" d=" M1305.271362,84.750542   C1305.008667,86.587540 1305.268066,88.332642 1302.610352,88.046333   C1299.975220,87.762451 1300.967285,85.852623 1301.059937,84.714546   C1301.484619,79.494904 1302.331909,74.305908 1301.989014,69.040947   C1301.899292,67.663986 1302.293579,66.859917 1303.897949,66.972725   C1305.759766,67.103638 1307.854004,66.416573 1308.626465,69.104118   C1309.724854,72.925430 1310.966187,76.705688 1312.325562,81.079826   C1313.642578,77.105095 1315.125610,73.805908 1315.758301,70.351021   C1316.272949,67.539543 1317.516479,66.813011 1320.056030,66.964920   C1322.904907,67.135330 1322.760864,69.302719 1322.963501,71.144447   C1323.143433,72.781418 1323.015381,74.452255 1323.097168,76.547836   C1323.875977,79.733658 1323.251343,82.538712 1323.769775,85.651657   C1324.000000,86.000000 1324.000000,86.500000 1324.000000,86.750000   C1320.427612,89.072777 1318.628784,88.546112 1318.947388,83.920692   C1319.206055,80.165131 1318.999878,76.377533 1318.342285,72.426613   C1316.915771,76.559952 1315.305176,80.643173 1314.159546,84.852943   C1313.740479,86.392708 1313.517700,87.106529 1311.790039,87.072121   C1310.145996,87.039368 1310.180298,86.162971 1309.869385,84.937698   C1309.086182,81.850662 1307.969849,78.848145 1306.905762,75.421257   C1304.153809,75.761734 1306.066650,77.969444 1305.307861,79.678970   C1305.135010,81.069725 1305.084961,82.137451 1305.105957,83.600998   C1305.242310,84.164650 1305.307739,84.332466 1305.271362,84.750542  z"/>
    <path stroke="none" d=" M182.276276,66.750748   C182.131546,96.025719 182.083694,125.049309 182.111481,154.536072   C182.825058,171.706070 182.383102,188.417801 182.151733,205.543213   C161.567520,205.980194 141.246582,206.001312 120.462341,206.098083   C119.833015,206.240204 119.666969,206.306671 119.250229,206.277603   C108.850075,206.129211 98.699516,205.972794 88.551735,206.079636   C84.997734,206.117035 84.751656,205.198730 85.476273,201.782440   C88.149620,189.178635 97.588791,182.324890 107.377335,176.378494   C131.153214,161.934967 134.317093,129.703064 117.828514,110.184158   C112.566292,103.954826 106.597832,98.502411 101.042587,92.609673   C97.668358,89.030457 94.695595,85.154648 92.005630,81.077629   C85.666611,71.469978 87.516907,61.613438 91.606659,51.862312   C95.760048,41.959454 95.857620,42.001503 106.706627,42.000149   C130.175812,41.997227 153.646469,42.127266 177.112839,41.868614   C181.461563,41.820675 182.337982,43.114582 182.103073,47.102131   C181.751312,53.073326 182.018372,59.080975 182.096664,65.536499   C182.238449,66.166382 182.305801,66.332870 182.276276,66.750748  z"/>
    <path stroke="none" d=" M799.255005,177.309647   C799.028748,137.909882 799.053955,98.934998 798.909180,59.960735   C798.896790,56.635651 799.829041,55.826756 803.031799,55.913570   C811.353638,56.139168 819.690857,56.156891 828.011292,55.906563   C831.318542,55.807060 832.089172,56.790867 832.074646,60.013397   C831.948730,88.161491 832.006775,116.310402 832.014648,144.459076   C832.014832,145.094162 832.068237,145.729263 832.146667,147.470551   C838.148438,141.418854 843.537598,135.925995 848.993347,130.500198   C854.503174,125.020622 859.747620,119.259056 865.925171,114.478981   C866.832031,113.777237 867.503418,112.962845 868.868225,112.968338   C882.763123,113.024284 896.658203,113.002541 911.015991,113.002541   C897.231995,125.932236 883.900452,138.393326 870.623352,150.912216   C864.874207,156.333038 864.920105,156.392181 870.509827,161.970444   C884.961609,176.392441 899.418213,190.809631 914.666260,206.020264   C899.026917,206.020264 884.463196,206.083313 869.900757,205.970734   C866.725525,205.946167 865.159973,202.970978 863.562622,200.911804   C858.652893,194.583038 852.523743,189.479065 847.123779,183.658508   C842.974731,179.186340 838.841919,174.699173 834.390442,170.093979   C833.627197,169.584335 833.108215,169.465698 832.357300,169.795807   C832.130310,180.762390 831.956421,191.513474 832.100891,202.260284   C832.141479,205.276611 831.451294,206.188095 828.316040,206.106628   C819.223083,205.870407 810.120117,206.020355 800.559204,205.993164   C798.814758,198.576721 799.833618,191.125961 799.524719,183.709305   C799.441956,181.720184 799.567261,179.725555 799.255005,177.309647  z"/>
    <path stroke="none" d=" M755.578247,110.684235   C773.616150,112.236160 783.098083,121.809250 786.110168,138.364670   C786.946289,142.960205 786.900879,147.502838 787.099182,152.543915   C787.240784,153.166916 787.306946,153.333023 787.277588,153.749695   C787.129150,169.900818 786.973694,185.802200 787.106628,201.701187   C787.134644,205.047668 786.517334,206.539078 782.868652,206.087158   C780.258484,205.763870 777.575073,206.031754 774.463501,206.109573   C768.314148,206.822098 762.608337,206.356186 756.453247,206.320297   C755.669983,205.980347 755.344727,205.770294 754.914490,205.282318   C754.094788,192.923950 754.777588,180.830078 754.256470,168.314880   C753.641357,160.522705 755.250671,153.092667 753.036133,145.779510   C751.692627,141.342850 748.955994,137.690384 744.620300,137.251633   C738.541687,136.636551 731.780823,135.428604 727.006348,141.277496   C723.734741,145.285217 721.943481,149.811798 721.975830,155.129303   C722.076965,171.739853 722.008423,188.351425 721.980591,205.423401   C715.762024,207.260803 709.491272,206.219009 703.260132,206.444855   C698.803223,206.606369 694.332092,206.571579 689.459351,206.146240   C689.029907,176.587357 689.061218,147.295914 688.916077,118.005356   C688.900146,114.797066 689.652893,113.789215 692.970825,113.893059   C701.117859,114.148048 709.285034,114.169899 717.430298,113.887772   C721.035889,113.762886 722.636719,114.519318 722.060669,118.417450   C721.726135,120.681122 721.999817,123.034668 721.999817,126.606392   C728.026978,117.648544 735.521362,112.559860 745.602356,110.907074   C746.166565,110.763588 746.332703,110.695236 746.750244,110.723831   C747.447632,110.868240 747.893555,110.915710 748.669312,110.888275   C751.030396,110.233917 753.102173,110.609238 755.578247,110.684235  z"/>
    <path stroke="none" d=" M337.275238,145.751312   C337.130188,155.025864 337.083069,164.048584 337.110229,173.534576   C337.849304,184.349045 337.337921,194.710312 337.321259,205.534851   C336.981079,206.329224 336.770538,206.654968 336.281830,207.086151   C329.581299,207.873566 323.135681,207.248917 316.295654,207.742996   C304.976562,208.119476 304.977325,208.119476 304.975861,197.421799   C304.975555,195.257278 304.967316,193.092758 304.888550,190.465393   C304.087616,177.922714 304.781708,165.829056 304.256012,153.314575   C304.980316,145.101761 298.917053,138.493500 292.501343,137.942688   C279.538574,136.829788 273.900696,143.114883 272.975159,152.490082   C272.596375,153.357986 272.487610,153.911499 272.303589,154.738647   C272.135406,171.324539 271.987122,187.649979 272.102173,203.973541   C272.124878,207.199432 271.340271,208.171890 268.033203,208.082565   C259.042084,207.839752 250.040192,207.997284 240.582047,207.972961   C238.955765,206.284836 239.554688,204.397324 239.546280,202.625702   C239.459488,184.339508 239.589371,166.052811 239.256348,147.325027   C239.035278,137.552704 239.196945,128.216278 238.907700,118.893822   C238.799759,115.414452 240.041885,114.851898 243.113052,114.923134   C251.440094,115.116295 259.781189,115.182449 268.102936,114.897079   C271.570709,114.778168 272.356567,116.004799 272.057556,119.098282   C271.823456,121.520493 272.010620,123.983429 272.010620,127.690575   C284.285370,110.342346 300.613678,108.841560 317.733459,114.558609   C331.093536,119.020119 335.479614,131.088745 337.094421,144.584183   C337.236450,145.166107 337.304810,145.332779 337.275238,145.751312  z"/>
    <path stroke="none" d=" M443.779999,168.839264   C443.441833,180.301605 452.242767,187.150284 462.425232,187.123032   C469.493103,187.104111 475.575470,185.962570 479.898987,179.420105   C490.082214,177.831497 500.164093,178.751999 510.228546,178.637619   C510.894928,178.630051 511.289093,179.347092 511.289490,180.524048   C502.760864,201.525848 486.513397,209.618088 465.335602,210.040100   C449.410583,210.357452 434.910461,206.500153 423.482910,194.887543   C415.342224,186.615112 411.494812,176.214203 410.978149,164.609833   C410.460449,152.981750 412.216034,141.898727 418.972382,132.077682   C427.881805,119.126907 440.673370,113.330704 455.948120,111.936089   C467.094971,110.918358 477.890564,111.902306 487.989471,117.002823   C502.485870,124.324333 509.599609,136.729523 512.095215,152.352783   C512.642578,155.779587 512.769958,159.187927 513.098267,162.604263   C513.456482,166.331207 511.349030,166.036880 508.900909,166.033340   C487.580017,166.002533 466.259033,166.027679 444.476013,166.113922   C443.192200,166.865463 443.536407,167.739700 443.779999,168.839264  z"/>
    <path stroke="none" d=" M1056.057983,120.964874   C1059.315430,133.226181 1059.120483,145.161453 1055.594604,156.746765   C1047.178467,184.400894 1028.854980,201.642532 1000.178528,207.018585   C969.895081,212.695908 945.757690,201.910904 927.613281,177.850693   C920.384705,168.265305 916.904602,156.756531 915.840759,144.459045   C914.043213,123.680901 920.028625,105.882637 933.920715,90.451797   C947.028748,75.891861 963.123352,67.974342 982.759155,66.918076   C1006.479248,65.642105 1025.848999,74.455872 1041.355347,91.946564   C1048.604736,100.123528 1053.562988,109.761238 1056.057983,120.964874  z"/>
    <path stroke="none" d=" M1170.841553,69.456802   C1176.212524,69.085358 1182.899658,67.199966 1186.004395,69.722923   C1189.233643,72.347084 1186.938965,79.317238 1186.978149,84.376984   C1187.104126,100.607826 1187.032104,116.840218 1187.109863,133.535492   C1187.867432,143.924545 1187.404541,153.862198 1187.458740,163.793518   C1187.537231,178.211487 1187.527710,192.630493 1187.322876,207.525940   C1185.785767,209.871536 1185.328979,207.793610 1184.817261,207.272385   C1171.920532,194.133713 1158.859497,181.144089 1146.354858,167.639679   C1142.094727,163.038910 1137.763428,158.506363 1133.414551,153.993912   C1121.907715,142.054062 1110.137695,130.360916 1098.872925,118.198601   C1094.844238,113.848946 1090.780396,109.527641 1086.400757,105.087753   C1084.014771,104.479881 1084.521973,106.095604 1084.514038,107.061127   C1084.482910,110.854523 1084.401367,114.649712 1084.749878,118.780426   C1084.963623,147.397095 1084.979980,175.676331 1084.973999,204.416016   C1079.620728,206.221176 1074.210571,205.193130 1068.443237,205.149475   C1068.044312,158.103134 1068.044312,111.322205 1068.044312,63.735641   C1073.324097,69.024773 1078.293335,73.741112 1082.885498,78.799736   C1083.944946,79.966675 1084.953247,81.319221 1086.079224,82.477676   C1100.086182,96.889244 1114.195312,111.201988 1128.146484,125.667122   C1141.939819,139.968628 1155.583252,154.414688 1169.604248,168.915924   C1170.072021,169.153152 1170.228027,169.271805 1170.596436,169.187149   C1170.860718,164.961792 1170.912598,160.939728 1170.890137,156.459900   C1170.163818,150.878799 1170.541382,145.732727 1170.539429,140.599823   C1170.530396,117.026558 1170.425415,93.453072 1170.841553,69.456802  z"/>
    <path stroke="none" d=" M632.277527,189.749695   C632.129028,194.657486 631.944458,199.318466 632.078064,203.970322   C632.146179,206.341843 631.478333,207.094315 629.041809,207.055191   C620.221375,206.913467 611.397156,207.000961 602.574402,206.997086   C601.268494,206.996521 599.873169,207.268219 599.942017,205.127258   C600.068726,201.183258 598.900208,197.376801 598.912354,193.375015   C599.049316,148.262817 598.996399,103.150032 599.019409,57.576599   C605.238037,55.739170 611.508728,56.780979 617.739929,56.555134   C622.196838,56.393597 626.667969,56.428463 631.540771,56.853745   C631.974426,100.772385 631.998962,144.423294 632.099121,188.537506   C632.240784,189.166916 632.306946,189.333023 632.277527,189.749695  z"/>
    <path stroke="none" d=" M1215.748291,189.660309   C1232.981445,189.870621 1249.960205,190.000107 1266.937744,189.906830   C1270.044678,189.889771 1271.153931,190.485794 1271.120361,193.902603   C1271.010864,205.009033 1271.173218,205.009155 1260.137695,205.010941   C1240.824585,205.014084 1221.510498,204.915375 1202.199463,205.116928   C1198.619141,205.154282 1197.897705,204.150101 1197.907471,200.722885   C1198.028931,158.267761 1198.048218,115.811890 1197.866333,73.357185   C1197.849243,69.369705 1199.123413,68.826897 1202.608032,68.896194   C1213.425537,69.111313 1224.250366,68.968124 1235.535522,68.889099   C1247.374023,68.180214 1258.756470,68.612587 1270.547119,68.848724   C1270.878906,73.909279 1272.612549,80.214989 1270.221558,83.088570   C1267.714600,86.101486 1261.177246,83.921684 1256.410278,83.967064   C1242.921387,84.095490 1229.430664,84.018486 1215.478394,84.098083   C1213.879272,91.204880 1214.729614,98.281395 1214.741089,105.725380   C1214.970093,111.099792 1214.990723,116.082817 1215.088623,121.525711   C1217.027954,123.030472 1219.051514,122.476868 1220.989502,122.486343   C1236.351685,122.561462 1251.714233,122.470177 1267.540527,122.680389   C1268.329834,123.020470 1268.655029,123.229988 1269.084595,123.717392   C1269.796997,128.378342 1269.399048,132.778595 1269.146362,137.560852   C1252.391113,137.970154 1235.901367,138.144119 1219.417969,137.898315   C1215.489258,137.839722 1214.867065,139.057678 1214.914795,142.609955   C1215.118530,157.762741 1215.007568,172.919754 1215.088867,188.538269   C1215.275391,189.168518 1215.384521,189.335724 1215.748291,189.660309  z"/>
    <path stroke="none" d=" M356.660339,114.249214   C356.865021,108.304855 356.914215,102.615829 356.890137,96.464035   C356.212585,93.279800 356.596436,90.530113 356.840149,87.412300   C367.391327,87.015625 377.684814,86.998444 388.440216,87.007027   C390.216919,94.544434 389.391754,102.118851 389.371796,109.653954   C389.361572,113.510773 390.307495,114.918724 394.304291,114.601059   C398.563995,114.262489 402.878265,114.429924 407.567200,114.841370   C407.984131,123.391205 408.001434,131.684906 407.992859,140.440506   C403.426514,142.184982 398.781891,141.470383 394.209473,141.381790   C390.659515,141.313019 389.256744,142.018250 389.385864,145.963501   C389.716309,156.056839 389.414215,166.166580 389.744843,176.691376   C389.966583,186.728027 389.981384,196.342773 389.972961,206.418030   C383.758301,208.268295 377.488159,207.216171 371.258362,207.444611   C366.801788,207.608032 362.330750,207.570633 357.456268,207.149918   C357.022308,199.898605 356.999359,192.912094 356.900879,185.462372   C356.759186,184.833084 356.693024,184.666977 356.722443,184.250305   C356.866943,170.642685 356.915833,157.285629 356.891113,143.465179   C356.712463,142.832169 356.607422,142.662567 356.251587,142.329803   C352.792847,141.510178 348.217896,143.560471 346.631317,141.268646   C344.989105,138.896469 346.044525,134.626587 346.001038,131.185745   C345.950867,127.219147 346.220123,123.233788 345.918854,119.289558   C345.662262,115.929932 346.489349,114.355347 350.132019,114.932693   C351.743866,115.188156 353.431091,114.968262 355.539215,114.890015   C356.164490,114.712097 356.334656,114.608322 356.660339,114.249214  z"/>
    <path stroke="none" d=" M573.162170,141.776489   C562.359070,142.508148 557.650452,150.439728 556.047546,160.035553   C555.831604,161.328491 556.003601,162.686249 555.970947,164.449234   C554.917175,173.808563 555.728333,182.764023 555.498840,191.702286   C555.375305,196.516464 555.572388,201.335281 555.149292,206.553024   C545.553833,206.973587 536.217773,206.817413 526.895081,207.101486   C523.442261,207.206696 522.895325,205.998169 522.910706,202.909821   C523.026917,179.582428 522.967712,156.254150 522.888794,132.462738   C522.197693,126.286247 522.605164,120.559540 522.851807,114.441345   C532.115112,114.029579 541.124695,114.289490 550.103943,113.881927   C554.444824,113.684891 555.710571,115.081810 555.057434,119.095253   C554.846252,120.393036 555.032898,121.755569 555.112610,123.543686   C555.990845,125.284454 554.753845,127.075531 556.524536,128.081512   C564.331726,116.852890 575.082214,112.604904 588.139465,112.902580   C590.954773,112.966759 592.216125,113.257614 592.115662,116.593239   C591.845642,125.561150 592.023438,134.542557 592.023438,143.581680   C589.806885,143.440063 588.171509,141.468277 585.508728,141.975098   C584.369385,141.333603 583.455505,141.539429 582.302490,141.309326   C580.282104,141.136520 578.565552,141.086655 576.425171,141.110229   C575.196777,141.625580 574.281189,141.388199 573.162170,141.776489  z"/>
    <path stroke="none" d=" M643.991760,116.190338   C643.859070,113.938316 645.054932,113.984177 646.280945,113.985054   C655.597412,113.991692 664.914551,114.041618 674.229736,113.931778   C676.376953,113.906471 677.062378,114.480316 677.057251,116.705208   C676.990540,145.818954 676.988159,174.933029 677.077271,204.046692   C677.084839,206.517731 676.295410,207.083923 673.969849,207.049332   C665.487122,206.923126 656.993774,206.790619 648.520142,207.096115   C644.810181,207.229858 643.877869,206.284500 643.901245,202.518173   C644.078674,173.904465 643.993286,145.289139 643.991760,116.190338  z"/>
    <path stroke="none" d=" M194.256378,133.327209   C194.035492,128.053146 194.107437,123.220612 193.962143,118.394608   C193.891220,116.038933 194.210632,114.845039 197.112213,114.913017   C206.101608,115.123604 215.100662,115.084030 224.092331,114.929482   C226.630066,114.885872 227.146210,115.806541 227.055695,118.086021   C226.897202,122.077019 227.018448,126.079132 227.098114,130.538864   C227.240204,131.167160 227.306671,131.333176 227.277618,131.749847   C227.129242,155.825882 226.984222,179.651749 227.119904,203.476044   C227.141006,207.179550 226.314850,208.237305 222.528763,208.101318   C213.708405,207.784485 204.868805,208.003586 195.576172,207.980347   C193.963745,206.285309 194.551926,204.398163 194.545563,202.624298   C194.463226,179.673492 194.589783,156.722336 194.256378,133.327209  z"/>
    <path stroke="none" d=" M228.398743,75.825409   C229.868515,87.882957 223.152527,96.028091 211.195068,97.350807   C202.209030,98.344833 192.666031,90.075233 192.201797,79.710587   C191.907196,73.133110 195.189972,67.486946 201.186127,63.935661   C207.563049,60.158863 214.063812,59.533127 220.326660,63.917252   C224.315430,66.709457 227.703964,70.188148 228.398743,75.825409  z"/>
    <path stroke="none" d=" M676.053833,86.867859   C669.819275,97.507271 657.249268,97.688881 650.677429,93.362534   C639.031921,85.696121 639.355286,69.144043 651.536560,62.119453   C658.178284,58.289333 666.580017,59.006821 673.534180,65.200562   C678.976990,70.048233 679.934204,79.524796 676.053833,86.867859  z"/>
    <path stroke="none" d=" M105.264694,26.291084   C97.055435,33.467892 84.378662,30.506632 81.838394,19.552155   C80.585548,14.149491 82.606117,8.174987 87.736038,4.716941   C93.089592,1.108144 99.150917,1.454404 103.826736,5.201421   C110.863014,10.840008 111.030998,19.392849 105.264694,26.291084  z"/>
    <path stroke="none" d=" M1288.217651,71.550163   C1287.161499,71.110321 1286.336426,70.999329 1285.513306,71.011955   C1284.136353,71.033073 1282.938110,71.165611 1282.921387,69.087067   C1282.906006,67.185768 1283.769165,66.942238 1285.318848,66.969215   C1289.130127,67.035576 1292.943237,66.997101 1296.755615,66.987686   C1297.957764,66.984718 1299.021362,66.931374 1299.036865,68.702820   C1299.051270,70.354752 1298.610962,71.319725 1296.828247,70.982979   C1293.258423,70.308662 1292.787964,72.204910 1292.962280,75.146599   C1293.167847,78.615280 1292.849731,82.115326 1293.062378,85.583138   C1293.222168,88.188957 1291.749268,88.126137 1289.560181,87.973038   C1287.776611,82.658585 1288.915649,77.262901 1288.217651,71.550163  z"/>
</svg>