<svg version="1.1" id="Layer_1" xmlns="http://www.w3.org/2000/svg" xmlns:xlink="http://www.w3.org/1999/xlink" x="0px" y="0px" viewBox="0 0 473.5 48.1" style="enable-background:new 0 0 473.5 48.1;" xml:space="preserve">
	<path fill="#ffdf00" id="SVGID_1_" d="M37.2,41.6c-3.9,3.6-9.5,5.5-16.7,5.5H-0.2V0.7h20.7c4.8,0,8.8,0.8,12.2,2.3c3.4,1.6,5.9,4.1,7.7,7.5
		c1.8,3.4,2.7,8,2.7,13.6C43.1,32.2,41.1,38,37.2,41.6L37.2,41.6z M28.1,16.2c-0.7-1.9-1.9-3.2-3.4-4c-1.5-0.7-3.5-1.1-5.9-1.1
		h-5.5v25.6h5.5c2.3,0,4.2-0.3,5.7-1c1.5-0.6,2.7-1.9,3.5-3.7c0.8-1.8,1.2-4.4,1.2-7.9C29.2,20.7,28.9,18.1,28.1,16.2L28.1,16.2z
			M79.9,47.1L76,37.2h-14l-3.8,9.9H44.1L61.9,0.7h14.3L94,47.1H79.9L79.9,47.1z M69.1,13.9l-5.2,13.6h10.4L69.1,13.9L69.1,13.9z
			M122.9,47.1h-14.3L90.8,0.7h14.1l10.8,30.7l10.8-30.7h14.2L122.9,47.1L122.9,47.1z M181.2,36.7v10.4h-35.1V0.7h35.1v10.4h-21.6
		v7.6h18.9v10.5h-18.9v7.6H181.2L181.2,36.7z M238.9,47.1V23.9l-7.4,15.3h-7.3l-7.5-15.3v23.2h-13.5V0.7h13.2l11.5,23.5l11.4-23.5
		h13.1v46.4H238.9L238.9,47.1z M294.7,47.1l-3.9-9.9h-14l-3.8,9.9h-14.1l17.8-46.4H291l17.8,46.4H294.7L294.7,47.1z M283.8,13.9
		l-5.2,13.6H289L283.8,13.9L283.8,13.9z M315.3,47.1V0.7h13.5v46.4H315.3L315.3,47.1z M351,16.5c1.3,0.6,3.5,1.3,6.8,2.1
		c3.8,1,6.7,2.2,8.7,3.7c2,1.4,3.3,3.1,4.1,5c0.7,1.9,1.1,4,1.1,6.4c0,4.2-1.6,7.6-4.9,10.2c-3.3,2.6-8.2,3.9-14.8,3.9
		c-3.1,0-6.1-0.3-8.9-0.8c-2.8-0.5-5.2-1.2-7.1-2.1V33.8c2.2,1,4.6,1.8,7.2,2.4c2.6,0.6,5.1,0.9,7.4,0.9c2.4,0,4.2-0.2,5.4-0.6
		c1.2-0.4,1.8-1.3,1.8-2.8c0-1-0.3-1.8-1-2.4c-0.7-0.6-1.8-1.1-3.2-1.6c-1.5-0.5-3.4-1.1-5.7-1.8c-3.1-1-5.6-2.1-7.4-3.3
		c-1.8-1.2-3.1-2.7-3.9-4.4s-1.2-3.8-1.2-6.3c0-4.6,1.6-8,4.9-10.4c3.2-2.4,8.1-3.6,14.4-3.6c2.5,0,5.2,0.2,7.9,0.6
		c2.7,0.4,4.9,0.9,6.6,1.4v11.2c-2.3-0.9-4.4-1.6-6.5-1.9c-2.1-0.4-4-0.6-5.8-0.6c-2.1,0-3.9,0.2-5.4,0.5
		c-1.5,0.3-2.2,1.2-2.2,2.6C349.1,15.1,349.8,16,351,16.5L351,16.5z M418,42.2c-4.1,3.7-9.9,5.6-17.6,5.6
		c-7.7,0-13.5-1.9-17.6-5.6c-4.1-3.7-6.1-9.8-6.1-18.1c0-5.8,0.9-10.4,2.7-13.9c1.8-3.5,4.5-6.1,8-7.7C391,0.8,395.3,0,400.4,0
		c5.1,0,9.4,0.8,12.9,2.4c3.5,1.6,6.2,4.2,8,7.7c1.8,3.5,2.7,8.2,2.7,13.9C424.1,32.4,422,38.4,418,42.2L418,42.2z M407.9,14.4
		c-1.6-1.9-4.1-2.8-7.5-2.8c-3.5,0-6,0.9-7.5,2.8c-1.6,1.9-2.3,5.1-2.3,9.7c0,4.3,0.8,7.4,2.3,9.3c1.6,1.9,4.1,2.9,7.5,2.9
		c3.5,0,6-1,7.5-2.9c1.6-1.9,2.3-5.1,2.3-9.3C410.3,19.5,409.5,16.3,407.9,14.4L407.9,14.4z M461.5,47.1l-17.4-24.5v24.5h-13.5
		V0.7h11.5l17.5,24.6V0.7h13.5v46.4H461.5L461.5,47.1z"/>
</svg>